# glowa (kadlub + pletwa grzbietowa) - siatka fizyczna
# 640 trojkatow, objetosc 1276.504 ml
# wygenerowane przez tools/make_meshes.py - nie edytuj recznie
v -0.086024 -0.021266 -0.029389
v -0.087756 -0.008031 -0.034689
v -0.038627 -0.040451 -0.025000
v -0.053166 -0.029389 -0.034410
v -0.020078 -0.034689 -0.035102
v -0.032500 -0.000773 -0.088316
v -0.041592 -0.000402 -0.084282
v -0.040969 -0.001063 -0.080572
v -0.048820 -0.000650 -0.075186
v -0.052798 -0.000657 -0.065686
v -0.048279 -0.001314 -0.060000
v -0.046406 -0.001250 -0.070816
v -0.036450 -0.001720 -0.074886
v -0.041220 -0.001755 -0.065622
v -0.033658 -0.002127 -0.060000
v -0.021829 -0.000406 -0.093287
v -0.021695 -0.001085 -0.090193
v -0.029140 -0.001469 -0.084087
v -0.023906 -0.002023 -0.077500
v -0.017228 -0.001734 -0.084572
v -0.010000 -0.000683 -0.093668
v -0.010000 -0.001314 -0.089773
v -0.010000 -0.002127 -0.078401
v -0.002772 -0.001734 -0.084572
v -0.029525 -0.002157 -0.069096
v -0.017311 -0.002378 -0.069200
v -0.022297 -0.002405 -0.060000
v -0.002689 -0.002378 -0.069200
v -0.010000 -0.002500 -0.060000
v -0.032486 -0.021694 -0.043133
v -0.062500 -0.015451 -0.040451
v -0.052798 -0.000657 -0.054314
v -0.048938 -0.000650 -0.045096
v -0.049033 -0.000619 -0.045082
v -0.048639 -0.000695 -0.045142
v -0.032858 -0.008123 -0.047553
v -0.041220 -0.001755 -0.054378
v -0.046406 -0.001250 -0.049184
v -0.044505 -0.001185 -0.045773
v -0.039816 -0.001561 -0.046490
v -0.037353 -0.001727 -0.046866
v -0.033684 -0.001895 -0.047427
v -0.032858 -0.001926 -0.047553
v -0.029525 -0.002157 -0.050904
v -0.017311 -0.002378 -0.050800
v -0.027549 -0.002109 -0.047948
v -0.019075 -0.002283 -0.048579
v -0.015744 -0.002324 -0.048827
v -0.002689 -0.002378 -0.050800
v -0.009452 -0.002337 -0.049296
v -0.003702 -0.002343 -0.049525
v -0.001741 -0.002327 -0.049606
v -0.106331 -0.026287 0.000000
v -0.065716 -0.042533 0.000000
v -0.086723 -0.035102 -0.008031
v -0.073473 -0.034410 -0.021266
v -0.086723 -0.035102 0.008031
v -0.073473 -0.034410 0.021266
v -0.118882 -0.013143 -0.008123
v -0.101127 -0.025000 -0.015451
v -0.107834 -0.012995 -0.021694
v -0.118882 -0.013143 0.008123
v -0.101127 -0.025000 0.015451
v -0.107834 -0.012995 0.021694
v -0.086024 -0.021266 0.029389
v -0.087756 -0.008031 0.034689
v -0.054236 -0.043133 -0.012995
v -0.054236 -0.043133 0.012995
v -0.034158 -0.048097 0.000000
v -0.020307 -0.047553 -0.013143
v -0.020307 -0.047553 0.013143
v -0.038627 -0.040451 0.025000
v -0.053166 -0.029389 0.034410
v -0.020078 -0.034689 0.035102
v -0.062500 -0.015451 0.040451
v -0.032486 -0.021694 0.043133
v -0.032858 -0.008123 0.047553
v -0.106331 0.000000 -0.026287
v -0.065716 0.000000 -0.042533
v -0.087756 0.008031 -0.034689
v -0.086024 0.021266 -0.029389
v -0.048279 0.000000 -0.078401
v -0.033658 0.000000 -0.089773
v -0.032500 0.000773 -0.088316
v -0.041592 0.000402 -0.084282
v -0.040969 0.001063 -0.080572
v -0.048820 0.000650 -0.075186
v -0.053287 0.000000 -0.069564
v -0.055000 0.000000 -0.060000
v -0.052798 0.000657 -0.065686
v -0.048279 0.001314 -0.060000
v -0.046406 0.001250 -0.070816
v -0.036450 0.001720 -0.074886
v -0.041220 0.001755 -0.065622
v -0.033658 0.002127 -0.060000
v -0.021829 0.000406 -0.093287
v -0.021695 0.001085 -0.090193
v -0.029140 0.001469 -0.084087
v -0.023906 0.002023 -0.077500
v -0.017228 0.001734 -0.084572
v -0.010000 0.000000 -0.095000
v -0.010000 0.000683 -0.093668
v -0.010000 0.001314 -0.089773
v -0.010000 0.002127 -0.078401
v -0.002772 0.001734 -0.084572
v -0.029525 0.002157 -0.069096
v -0.017311 0.002378 -0.069200
v -0.022297 0.002405 -0.060000
v -0.002689 0.002378 -0.069200
v -0.010000 0.002500 -0.060000
v -0.052798 0.000657 -0.054314
v -0.053287 0.000000 -0.050436
v -0.050156 0.000000 -0.044910
v -0.049033 0.000619 -0.045082
v -0.048938 0.000650 -0.045096
v -0.048639 0.000695 -0.045142
v -0.041220 0.001755 -0.054378
v -0.046406 0.001250 -0.049184
v -0.044505 0.001185 -0.045773
v -0.039816 0.001561 -0.046490
v -0.037353 0.001727 -0.046866
v -0.033684 0.001895 -0.047427
v -0.032858 0.001926 -0.047553
v -0.032858 0.008123 -0.047553
v -0.032486 0.021694 -0.043133
v -0.062500 0.015451 -0.040451
v -0.029525 0.002157 -0.050904
v -0.017311 0.002378 -0.050800
v -0.027549 0.002109 -0.047948
v -0.019075 0.002283 -0.048579
v -0.015744 0.002324 -0.048827
v -0.002689 0.002378 -0.050800
v -0.009452 0.002337 -0.049296
v -0.003702 0.002343 -0.049525
v -0.001741 0.002327 -0.049606
v -0.053166 0.029389 -0.034410
v -0.038627 0.040451 -0.025000
v -0.020078 0.034689 -0.035102
v -0.120242 0.000000 -0.013663
v -0.125000 0.000000 0.000000
v -0.120242 0.000000 0.013663
v -0.118882 0.013143 -0.008123
v -0.107834 0.012995 -0.021694
v -0.118882 0.013143 0.008123
v -0.106331 0.000000 0.026287
v -0.107834 0.012995 0.021694
v -0.087756 0.008031 0.034689
v -0.065716 0.000000 0.042533
v -0.086024 0.021266 0.029389
v -0.101127 0.025000 -0.015451
v -0.106331 0.026287 0.000000
v -0.086723 0.035102 -0.008031
v -0.073473 0.034410 -0.021266
v -0.086723 0.035102 0.008031
v -0.065716 0.042533 0.000000
v -0.101127 0.025000 0.015451
v -0.073473 0.034410 0.021266
v -0.032858 0.008123 0.047553
v -0.062500 0.015451 0.040451
v -0.032486 0.021694 0.043133
v -0.054236 0.043133 -0.012995
v -0.054236 0.043133 0.012995
v -0.034158 0.048097 0.000000
v -0.020307 0.047553 -0.013143
v -0.020307 0.047553 0.013143
v -0.053166 0.029389 0.034410
v -0.038627 0.040451 0.025000
v -0.020078 0.034689 0.035102
v 0.000000 -0.042533 -0.026287
v 0.000000 -0.026287 -0.042533
v 0.020078 -0.034689 -0.035102
v 0.038627 -0.040451 -0.025000
v 0.053166 -0.029389 -0.034410
v 0.001829 -0.000406 -0.093287
v 0.001695 -0.001085 -0.090193
v 0.012500 -0.000773 -0.088316
v 0.003906 -0.002023 -0.077500
v 0.009140 -0.001469 -0.084087
v 0.021592 -0.000402 -0.084282
v 0.020969 -0.001063 -0.080572
v 0.009525 -0.002157 -0.069096
v 0.002297 -0.002405 -0.060000
v 0.013658 -0.002127 -0.060000
v 0.016450 -0.001720 -0.074886
v 0.028820 -0.000650 -0.075186
v 0.026406 -0.001250 -0.070816
v 0.021220 -0.001755 -0.065622
v 0.028279 -0.001314 -0.060000
v 0.032798 -0.000657 -0.065686
v 0.000000 -0.013663 -0.048097
v 0.009525 -0.002157 -0.050904
v 0.000000 -0.002297 -0.049680
v 0.008495 -0.002132 -0.049363
v 0.008609 -0.002128 -0.049359
v 0.011643 -0.002023 -0.049133
v 0.021220 -0.001755 -0.054378
v 0.018266 -0.001734 -0.048640
v 0.024025 -0.001363 -0.048211
v 0.026406 -0.001250 -0.049184
v 0.025790 -0.001229 -0.048079
v 0.027069 -0.001085 -0.047984
v 0.030054 -0.000652 -0.047762
v 0.031100 -0.000318 -0.047684
v 0.032486 -0.021694 -0.043133
v 0.032858 -0.008123 -0.047553
v 0.032798 -0.000657 -0.054314
v 0.062500 -0.015451 -0.040451
v 0.086024 -0.021266 -0.029389
v 0.087756 -0.008031 -0.034689
v 0.020307 -0.047553 -0.013143
v 0.000000 -0.050000 0.000000
v 0.020307 -0.047553 0.013143
v 0.054236 -0.043133 -0.012995
v 0.034158 -0.048097 0.000000
v 0.054236 -0.043133 0.012995
v 0.000000 -0.042533 0.026287
v 0.000000 -0.026287 0.042533
v 0.020078 -0.034689 0.035102
v 0.038627 -0.040451 0.025000
v 0.053166 -0.029389 0.034410
v 0.000000 -0.013663 0.048097
v 0.032486 -0.021694 0.043133
v 0.032858 -0.008123 0.047553
v 0.065716 -0.042533 0.000000
v 0.073473 -0.034410 -0.021266
v 0.086723 -0.035102 -0.008031
v 0.086723 -0.035102 0.008031
v 0.106331 -0.026287 0.000000
v 0.073473 -0.034410 0.021266
v 0.101127 -0.025000 -0.015451
v 0.107834 -0.012995 -0.021694
v 0.118882 -0.013143 -0.008123
v 0.118882 -0.013143 0.008123
v 0.086024 -0.021266 0.029389
v 0.062500 -0.015451 0.040451
v 0.087756 -0.008031 0.034689
v 0.101127 -0.025000 0.015451
v 0.107834 -0.012995 0.021694
v 0.001829 0.000406 -0.093287
v 0.001695 0.001085 -0.090193
v 0.013658 0.000000 -0.089773
v 0.012500 0.000773 -0.088316
v 0.003906 0.002023 -0.077500
v 0.009140 0.001469 -0.084087
v 0.021592 0.000402 -0.084282
v 0.020969 0.001063 -0.080572
v 0.028279 0.000000 -0.078401
v 0.009525 0.002157 -0.069096
v 0.002297 0.002405 -0.060000
v 0.013658 0.002127 -0.060000
v 0.016450 0.001720 -0.074886
v 0.028820 0.000650 -0.075186
v 0.026406 0.001250 -0.070816
v 0.021220 0.001755 -0.065622
v 0.028279 0.001314 -0.060000
v 0.033287 0.000000 -0.069564
v 0.032798 0.000657 -0.065686
v 0.035000 0.000000 -0.060000
v 0.009525 0.002157 -0.050904
v 0.000000 0.002297 -0.049680
v 0.008495 0.002132 -0.049363
v 0.008609 0.002128 -0.049359
v 0.011643 0.002023 -0.049133
v 0.021220 0.001755 -0.054378
v 0.018266 0.001734 -0.048640
v 0.024025 0.001363 -0.048211
v 0.026406 0.001250 -0.049184
v 0.025790 0.001229 -0.048079
v 0.027069 0.001085 -0.047984
v 0.030054 0.000652 -0.047762
v 0.031100 0.000318 -0.047684
v 0.000000 0.013663 -0.048097
v 0.032798 0.000657 -0.054314
v 0.033287 0.000000 -0.050436
v 0.031702 0.000000 -0.047639
v 0.032858 0.008123 -0.047553
v 0.032486 0.021694 -0.043133
v 0.000000 0.026287 -0.042533
v 0.020078 0.034689 -0.035102
v 0.000000 0.042533 -0.026287
v 0.053166 0.029389 -0.034410
v 0.038627 0.040451 -0.025000
v 0.065716 0.000000 -0.042533
v 0.087756 0.008031 -0.034689
v 0.062500 0.015451 -0.040451
v 0.086024 0.021266 -0.029389
v 0.106331 0.000000 -0.026287
v 0.000000 0.000000 0.050000
v 0.000000 0.013663 0.048097
v 0.032858 0.008123 0.047553
v 0.032486 0.021694 0.043133
v 0.020307 0.047553 -0.013143
v 0.000000 0.050000 0.000000
v 0.020307 0.047553 0.013143
v 0.054236 0.043133 -0.012995
v 0.034158 0.048097 0.000000
v 0.054236 0.043133 0.012995
v 0.000000 0.026287 0.042533
v 0.020078 0.034689 0.035102
v 0.000000 0.042533 0.026287
v 0.053166 0.029389 0.034410
v 0.038627 0.040451 0.025000
v 0.120242 0.000000 -0.013663
v 0.125000 0.000000 0.000000
v 0.120242 0.000000 0.013663
v 0.107834 0.012995 -0.021694
v 0.118882 0.013143 -0.008123
v 0.118882 0.013143 0.008123
v 0.065716 0.000000 0.042533
v 0.087756 0.008031 0.034689
v 0.086024 0.021266 0.029389
v 0.062500 0.015451 0.040451
v 0.106331 0.000000 0.026287
v 0.107834 0.012995 0.021694
v 0.073473 0.034410 -0.021266
v 0.086723 0.035102 -0.008031
v 0.086723 0.035102 0.008031
v 0.065716 0.042533 0.000000
v 0.101127 0.025000 -0.015451
v 0.106331 0.026287 0.000000
v 0.073473 0.034410 0.021266
v 0.101127 0.025000 0.015451
vn -0.363798 -0.555651 -0.747598
vn -0.380326 -0.204252 -0.902016
vn -0.131808 -0.842838 -0.521776
vn -0.194994 -0.641489 -0.741936
vn -0.067022 -0.700445 -0.710552
vn -0.114098 -0.962980 -0.244235
vn -0.482041 -0.624189 -0.614838
vn -0.102717 -0.988557 -0.110469
vn -0.275417 -0.946812 -0.166411
vn -0.302166 -0.951458 -0.058502
vn -0.102710 -0.994711 0.000000
vn -0.099493 -0.993894 -0.047708
vn -0.050797 -0.997550 -0.048110
vn -0.057637 -0.998194 -0.016953
vn -0.035556 -0.999368 0.000000
vn -0.169038 -0.612480 -0.772201
vn -0.037255 -0.986734 -0.158014
vn -0.044415 -0.994994 -0.089518
vn -0.022281 -0.998692 -0.046013
vn -0.013801 -0.996965 -0.076620
vn -0.000000 -0.947952 -0.318413
vn 0.000000 -0.992287 -0.123965
vn 0.000000 -0.998984 -0.045062
vn 0.013801 -0.996965 -0.076620
vn -0.028953 -0.999335 -0.022148
vn -0.009255 -0.999739 -0.020868
vn -0.016420 -0.999865 0.000000
vn 0.009255 -0.999739 -0.020868
vn 0.000000 -1.000000 -0.000000
vn -0.108109 -0.451570 -0.885662
vn -0.231230 -0.349303 -0.908031
vn -0.302166 -0.951458 0.058502
vn -0.258047 -0.690069 -0.676178
vn -0.367651 -0.674508 -0.640212
vn -0.202886 -0.712325 -0.671886
vn -0.112629 -0.157736 -0.981037
vn -0.057637 -0.998194 0.016953
vn -0.099493 -0.993894 0.047708
vn -0.171344 -0.718151 -0.674463
vn -0.153933 -0.714325 -0.682674
vn -0.143714 -0.711259 -0.688082
vn -0.136666 -0.712896 -0.687824
vn -0.103861 -0.726983 -0.678755
vn -0.028953 -0.999335 0.022148
vn -0.009255 -0.999739 0.020868
vn -0.069794 -0.715644 -0.694970
vn -0.064870 -0.716174 -0.694901
vn -0.055557 -0.716260 -0.695619
vn 0.009255 -0.999739 0.020868
vn -0.028377 -0.763223 -0.645511
vn -0.024872 -0.762892 -0.646047
vn -0.016103 -0.763331 -0.645807
vn -0.578125 -0.815948 0.000000
vn -0.249416 -0.968396 -0.000000
vn -0.371476 -0.905746 -0.204033
vn -0.286548 -0.809654 -0.512202
vn -0.371476 -0.905746 0.204033
vn -0.286548 -0.809654 0.512202
vn -0.804654 -0.514955 -0.295557
vn -0.502061 -0.737751 -0.451285
vn -0.588341 -0.415674 -0.693592
vn -0.804654 -0.514955 0.295557
vn -0.502061 -0.737751 0.451285
vn -0.588341 -0.415674 0.693592
vn -0.363798 -0.555651 0.747598
vn -0.380326 -0.204252 0.902016
vn -0.192862 -0.939351 -0.283593
vn -0.192862 -0.939351 0.283593
vn -0.119701 -0.992810 -0.000000
vn -0.063125 -0.959921 -0.273070
vn -0.063125 -0.959921 0.273070
vn -0.131808 -0.842838 0.521776
vn -0.194994 -0.641489 0.741936
vn -0.067022 -0.700445 0.710552
vn -0.231230 -0.349303 0.908031
vn -0.108109 -0.451570 0.885662
vn -0.112629 -0.157736 0.981037
vn -0.563529 0.000000 -0.826096
vn -0.241383 -0.000000 -0.970430
vn -0.380326 0.204252 -0.902016
vn -0.363798 0.555651 -0.747598
vn -0.768297 0.000000 -0.640093
vn -0.431355 0.000000 -0.902182
vn -0.114098 0.962980 -0.244235
vn -0.482041 0.624189 -0.614838
vn -0.102717 0.988557 -0.110469
vn -0.275417 0.946812 -0.166411
vn -0.931673 0.000000 -0.363298
vn -1.000000 0.000000 0.000000
vn -0.302166 0.951458 -0.058502
vn -0.102710 0.994711 0.000000
vn -0.099493 0.993894 -0.047708
vn -0.050797 0.997550 -0.048110
vn -0.057637 0.998194 -0.016953
vn -0.035556 0.999368 0.000000
vn -0.169038 0.612480 -0.772201
vn -0.037255 0.986734 -0.158014
vn -0.044415 0.994994 -0.089518
vn -0.022281 0.998692 -0.046013
vn -0.013801 0.996965 -0.076620
vn -0.000000 0.000000 -1.000000
vn -0.000000 0.947952 -0.318413
vn 0.000000 0.992287 -0.123965
vn 0.000000 0.998984 -0.045062
vn 0.013801 0.996965 -0.076620
vn -0.028953 0.999335 -0.022148
vn -0.009255 0.999739 -0.020868
vn -0.016420 0.999865 0.000000
vn 0.009255 0.999739 -0.020868
vn 0.000000 1.000000 0.000000
vn -0.302166 0.951458 0.058502
vn -0.931673 0.000000 0.363298
vn -0.496735 -0.000000 -0.867902
vn -0.367651 0.674508 -0.640212
vn -0.258047 0.690069 -0.676178
vn -0.202886 0.712325 -0.671886
vn -0.057637 0.998194 0.016953
vn -0.099493 0.993894 0.047708
vn -0.171344 0.718151 -0.674463
vn -0.153933 0.714325 -0.682674
vn -0.143714 0.711259 -0.688082
vn -0.136666 0.712896 -0.687824
vn -0.103861 0.726983 -0.678755
vn -0.112629 0.157736 -0.981037
vn -0.108109 0.451570 -0.885662
vn -0.231230 0.349303 -0.908031
vn -0.028953 0.999335 0.022148
vn -0.009255 0.999739 0.020868
vn -0.069794 0.715644 -0.694970
vn -0.064870 0.716174 -0.694901
vn -0.055557 0.716260 -0.695619
vn 0.009255 0.999739 0.020868
vn -0.028377 0.763223 -0.645511
vn -0.024872 0.762892 -0.646047
vn -0.016103 0.763331 -0.645807
vn -0.194994 0.641489 -0.741936
vn -0.131808 0.842838 -0.521776
vn -0.067022 0.700445 -0.710552
vn -0.837333 0.000000 -0.546694
vn -1.000000 0.000000 -0.000000
vn -0.837333 0.000000 0.546694
vn -0.804654 0.514955 -0.295557
vn -0.588341 0.415674 -0.693592
vn -0.804654 0.514955 0.295557
vn -0.563529 0.000000 0.826096
vn -0.588341 0.415674 0.693592
vn -0.380326 0.204252 0.902016
vn -0.241383 0.000000 0.970430
vn -0.363798 0.555651 0.747598
vn -0.502061 0.737751 -0.451285
vn -0.578125 0.815948 0.000000
vn -0.371476 0.905746 -0.204033
vn -0.286548 0.809654 -0.512202
vn -0.371476 0.905746 0.204033
vn -0.249416 0.968396 0.000000
vn -0.502061 0.737751 0.451285
vn -0.286548 0.809654 0.512202
vn -0.112629 0.157736 0.981037
vn -0.231230 0.349303 0.908031
vn -0.108109 0.451570 0.885662
vn -0.192862 0.939351 -0.283593
vn -0.192862 0.939351 0.283593
vn -0.119701 0.992810 0.000000
vn -0.063125 0.959921 -0.273070
vn -0.063125 0.959921 0.273070
vn -0.194994 0.641489 0.741936
vn -0.131808 0.842838 0.521776
vn -0.067022 0.700445 0.710552
vn 0.000000 -0.854919 -0.518762
vn -0.000000 -0.530053 -0.847964
vn 0.067022 -0.700445 -0.710552
vn 0.131808 -0.842838 -0.521776
vn 0.194994 -0.641489 -0.741936
vn 0.169038 -0.612480 -0.772201
vn 0.037255 -0.986734 -0.158014
vn 0.114098 -0.962980 -0.244235
vn 0.022281 -0.998692 -0.046013
vn 0.044415 -0.994994 -0.089518
vn 0.482041 -0.624189 -0.614838
vn 0.102717 -0.988557 -0.110469
vn 0.028953 -0.999335 -0.022148
vn 0.016420 -0.999865 0.000000
vn 0.035556 -0.999368 0.000000
vn 0.050797 -0.997550 -0.048110
vn 0.275417 -0.946812 -0.166411
vn 0.099493 -0.993894 -0.047708
vn 0.057637 -0.998194 -0.016953
vn 0.102710 -0.994711 0.000000
vn 0.302165 -0.951459 -0.058502
vn 0.000000 -0.273539 -0.961861
vn 0.028953 -0.999335 0.022148
vn 0.012780 -0.771599 -0.635981
vn 0.041895 -0.762493 -0.645638
vn 0.050409 -0.765634 -0.641298
vn 0.081720 -0.714111 -0.695246
vn 0.057637 -0.998194 0.016953
vn 0.088487 -0.712765 -0.695799
vn 0.098796 -0.716264 -0.690801
vn 0.099493 -0.993894 0.047708
vn 0.115057 -0.720918 -0.683402
vn 0.147366 -0.716365 -0.681986
vn 0.199863 -0.697058 -0.688596
vn 0.310906 -0.686952 -0.656837
vn 0.108109 -0.451570 -0.885662
vn 0.112629 -0.157736 -0.981037
vn 0.302165 -0.951459 0.058502
vn 0.231230 -0.349303 -0.908031
vn 0.363798 -0.555651 -0.747598
vn 0.380326 -0.204252 -0.902016
vn 0.063125 -0.959921 -0.273070
vn 0.000000 -1.000000 0.000000
vn 0.063125 -0.959921 0.273070
vn 0.192862 -0.939351 -0.283593
vn 0.119701 -0.992810 -0.000000
vn 0.192862 -0.939351 0.283593
vn -0.000000 -0.854919 0.518762
vn 0.000000 -0.530053 0.847964
vn 0.067022 -0.700445 0.710552
vn 0.131808 -0.842838 0.521776
vn 0.194994 -0.641489 0.741936
vn -0.000000 -0.273539 0.961861
vn 0.108109 -0.451570 0.885662
vn 0.112629 -0.157736 0.981037
vn 0.249416 -0.968396 0.000000
vn 0.286548 -0.809654 -0.512202
vn 0.371476 -0.905746 -0.204033
vn 0.371476 -0.905746 0.204033
vn 0.578125 -0.815948 0.000000
vn 0.286548 -0.809654 0.512202
vn 0.502061 -0.737751 -0.451285
vn 0.588341 -0.415674 -0.693592
vn 0.804654 -0.514955 -0.295557
vn 0.804654 -0.514955 0.295557
vn 0.363798 -0.555651 0.747598
vn 0.231230 -0.349303 0.908031
vn 0.380326 -0.204252 0.902016
vn 0.502061 -0.737751 0.451285
vn 0.588341 -0.415674 0.693592
vn 0.169038 0.612480 -0.772201
vn 0.037255 0.986734 -0.158014
vn 0.431355 -0.000000 -0.902182
vn 0.114098 0.962980 -0.244235
vn 0.022281 0.998692 -0.046013
vn 0.044415 0.994994 -0.089518
vn 0.482041 0.624189 -0.614838
vn 0.102717 0.988557 -0.110469
vn 0.768297 -0.000000 -0.640093
vn 0.028953 0.999335 -0.022148
vn 0.016420 0.999865 -0.000000
vn 0.035556 0.999368 0.000000
vn 0.050797 0.997550 -0.048110
vn 0.275417 0.946812 -0.166411
vn 0.099493 0.993894 -0.047708
vn 0.057637 0.998194 -0.016953
vn 0.102710 0.994711 0.000000
vn 0.931673 -0.000000 -0.363297
vn 0.302165 0.951459 -0.058502
vn 1.000000 0.000000 -0.000000
vn 0.028953 0.999335 0.022148
vn 0.012780 0.771599 -0.635981
vn 0.041895 0.762493 -0.645638
vn 0.050409 0.765634 -0.641298
vn 0.081720 0.714111 -0.695246
vn 0.057637 0.998194 0.016953
vn 0.088487 0.712765 -0.695799
vn 0.098796 0.716264 -0.690801
vn 0.099493 0.993894 0.047708
vn 0.115057 0.720918 -0.683402
vn 0.147366 0.716365 -0.681986
vn 0.199863 0.697058 -0.688596
vn 0.310906 0.686952 -0.656837
vn 0.000000 0.273539 -0.961861
vn 0.302165 0.951459 0.058502
vn 0.931673 0.000000 0.363297
vn 0.438524 0.000000 -0.898719
vn 0.112629 0.157736 -0.981037
vn 0.108109 0.451570 -0.885662
vn -0.000000 0.530053 -0.847964
vn 0.067022 0.700445 -0.710552
vn 0.000000 0.854919 -0.518762
vn 0.194994 0.641489 -0.741936
vn 0.131808 0.842838 -0.521776
vn 0.241383 -0.000000 -0.970430
vn 0.380326 0.204252 -0.902016
vn 0.231230 0.349303 -0.908031
vn 0.363798 0.555651 -0.747598
vn 0.563529 -0.000000 -0.826096
vn 0.000000 -0.000000 1.000000
vn 0.000000 0.273539 0.961861
vn 0.112629 0.157736 0.981037
vn 0.108109 0.451570 0.885662
vn 0.063125 0.959921 -0.273070
vn -0.000000 1.000000 -0.000000
vn 0.063125 0.959921 0.273070
vn 0.192862 0.939351 -0.283593
vn 0.119701 0.992810 0.000000
vn 0.192862 0.939351 0.283593
vn 0.000000 0.530053 0.847964
vn 0.067022 0.700445 0.710552
vn 0.000000 0.854919 0.518762
vn 0.194994 0.641489 0.741936
vn 0.131808 0.842838 0.521776
vn 0.837333 0.000000 -0.546694
vn 1.000000 0.000000 0.000000
vn 0.837333 -0.000000 0.546694
vn 0.588341 0.415674 -0.693592
vn 0.804654 0.514955 -0.295557
vn 0.804654 0.514955 0.295557
vn 0.241383 0.000000 0.970430
vn 0.380326 0.204252 0.902016
vn 0.363798 0.555651 0.747598
vn 0.231230 0.349303 0.908031
vn 0.563529 -0.000000 0.826096
vn 0.588341 0.415674 0.693592
vn 0.286548 0.809654 -0.512202
vn 0.371476 0.905746 -0.204033
vn 0.371476 0.905746 0.204033
vn 0.249416 0.968396 0.000000
vn 0.502061 0.737751 -0.451285
vn 0.578125 0.815948 -0.000000
vn 0.286548 0.809654 0.512202
vn 0.502061 0.737751 0.451285
f 56//56 1//1 4//4
f 1//1 61//61 2//2
f 2//2 61//61 78//78
f 1//1 2//2 31//31
f 1//1 31//31 4//4
f 2//2 79//79 31//31
f 56//56 4//4 3//3
f 4//4 5//5 3//3
f 4//4 30//30 5//5
f 5//5 169//169 3//3
f 5//5 30//30 170//170
f 31//31 36//36 30//30
f 4//4 31//31 30//30
f 31//31 79//79 36//36
f 79//79 113//113 34//34
f 36//36 79//79 39//39
f 79//79 34//34 33//33
f 79//79 33//33 35//35
f 79//79 35//35 39//39
f 36//36 39//39 40//40
f 36//36 40//40 41//41
f 36//36 42//42 43//43
f 36//36 41//41 42//42
f 30//30 36//36 190//190
f 30//30 190//190 170//170
f 36//36 43//43 46//46
f 36//36 46//46 47//47
f 36//36 47//47 48//48
f 36//36 48//48 50//50
f 36//36 50//50 190//190
f 190//190 50//50 51//51
f 190//190 51//51 52//52
f 190//190 52//52 192//192
f 55//55 53//53 60//60
f 53//53 57//57 63//63
f 56//56 67//67 55//55
f 55//55 67//67 54//54
f 55//55 54//54 57//57
f 54//54 68//68 57//57
f 56//56 55//55 60//60
f 56//56 60//60 1//1
f 55//55 57//57 53//53
f 57//57 68//68 58//58
f 57//57 58//58 63//63
f 58//58 65//65 63//63
f 58//58 73//73 65//65
f 1//1 60//60 61//61
f 60//60 53//53 59//59
f 60//60 59//59 61//61
f 59//59 53//53 62//62
f 53//53 63//63 62//62
f 61//61 59//59 139//139
f 61//61 139//139 78//78
f 59//59 140//140 139//139
f 59//59 62//62 140//140
f 62//62 141//141 140//140
f 63//63 65//65 64//64
f 62//62 63//63 64//64
f 64//64 65//65 66//66
f 62//62 64//64 141//141
f 64//64 145//145 141//141
f 64//64 66//66 145//145
f 65//65 75//75 66//66
f 65//65 73//73 75//75
f 66//66 75//75 148//148
f 56//56 3//3 67//67
f 67//67 70//70 69//69
f 67//67 3//3 70//70
f 67//67 69//69 54//54
f 54//54 69//69 68//68
f 69//69 71//71 68//68
f 70//70 211//211 69//69
f 3//3 169//169 70//70
f 69//69 211//211 71//71
f 58//58 68//68 72//72
f 68//68 71//71 72//72
f 58//58 72//72 73//73
f 72//72 74//74 73//73
f 73//73 74//74 76//76
f 71//71 216//216 72//72
f 72//72 216//216 74//74
f 74//74 217//217 76//76
f 73//73 76//76 75//75
f 75//75 76//76 77//77
f 75//75 77//77 148//148
f 76//76 221//221 77//77
f 76//76 217//217 221//221
f 77//77 221//221 288//288
f 2//2 78//78 80//80
f 78//78 143//143 80//80
f 80//80 143//143 81//81
f 2//2 80//80 79//79
f 79//79 80//80 126//126
f 80//80 81//81 126//126
f 81//81 136//136 126//126
f 81//81 153//153 136//136
f 79//79 114//114 113//113
f 79//79 124//124 119//119
f 79//79 115//115 114//114
f 79//79 116//116 115//115
f 79//79 119//119 116//116
f 79//79 126//126 124//124
f 124//124 120//120 119//119
f 124//124 121//121 120//120
f 124//124 123//123 122//122
f 124//124 122//122 121//121
f 124//124 126//126 125//125
f 126//126 136//136 125//125
f 124//124 129//129 123//123
f 124//124 130//130 129//129
f 124//124 131//131 130//130
f 124//124 133//133 131//131
f 272//272 134//134 133//133
f 272//272 135//135 134//134
f 272//272 260//260 135//135
f 124//124 272//272 133//133
f 124//124 125//125 272//272
f 125//125 278//278 272//272
f 153//153 137//137 136//136
f 125//125 136//136 138//138
f 136//136 137//137 138//138
f 125//125 138//138 278//278
f 138//138 137//137 280//280
f 78//78 139//139 143//143
f 139//139 140//140 142//142
f 139//139 142//142 143//143
f 140//140 141//141 144//144
f 142//142 140//140 144//144
f 143//143 142//142 150//150
f 81//81 143//143 150//150
f 142//142 151//151 150//150
f 142//142 144//144 151//151
f 144//144 156//156 151//151
f 141//141 145//145 146//146
f 141//141 146//146 144//144
f 146//146 145//145 147//147
f 66//66 147//147 145//145
f 144//144 146//146 156//156
f 146//146 147//147 149//149
f 146//146 149//149 156//156
f 66//66 148//148 147//147
f 147//147 148//148 159//159
f 147//147 159//159 149//149
f 149//149 159//159 166//166
f 150//150 151//151 152//152
f 151//151 156//156 154//154
f 81//81 150//150 153//153
f 150//150 152//152 153//153
f 152//152 151//151 154//154
f 153//153 152//152 161//161
f 152//152 155//155 161//161
f 152//152 154//154 155//155
f 154//154 162//162 155//155
f 149//149 157//157 156//156
f 156//156 157//157 154//154
f 149//149 166//166 157//157
f 154//154 157//157 162//162
f 148//148 158//158 159//159
f 77//77 158//158 148//148
f 159//159 160//160 166//166
f 158//158 160//160 159//159
f 77//77 288//288 158//158
f 158//158 288//288 289//289
f 158//158 289//289 160//160
f 160//160 289//289 298//298
f 153//153 161//161 137//137
f 161//161 164//164 137//137
f 161//161 163//163 164//164
f 161//161 155//155 163//163
f 155//155 162//162 163//163
f 163//163 162//162 165//165
f 137//137 164//164 280//280
f 164//164 163//163 293//293
f 163//163 165//165 293//293
f 157//157 166//166 167//167
f 166//166 168//168 167//167
f 160//160 168//168 166//166
f 157//157 167//167 162//162
f 162//162 167//167 165//165
f 160//160 298//298 168//168
f 165//165 167//167 300//300
f 167//167 168//168 300//300
f 169//169 171//171 172//172
f 5//5 171//171 169//169
f 5//5 170//170 171//171
f 170//170 204//204 171//171
f 171//171 173//173 172//172
f 171//171 204//204 173//173
f 173//173 225//225 172//172
f 170//170 190//190 204//204
f 190//190 205//205 204//204
f 190//190 193//193 205//205
f 190//190 192//192 193//193
f 205//205 193//193 194//194
f 205//205 194//194 195//195
f 205//205 195//195 197//197
f 205//205 197//197 198//198
f 205//205 198//198 200//200
f 205//205 200//200 201//201
f 205//205 201//201 202//202
f 204//204 205//205 207//207
f 173//173 204//204 207//207
f 205//205 202//202 203//203
f 205//205 203//203 275//275
f 205//205 283//283 207//207
f 173//173 208//208 225//225
f 173//173 207//207 208//208
f 207//207 209//209 208//208
f 207//207 283//283 209//209
f 208//208 209//209 231//231
f 209//209 287//287 231//231
f 70//70 169//169 210//210
f 70//70 210//210 211//211
f 210//210 214//214 211//211
f 169//169 172//172 210//210
f 71//71 211//211 212//212
f 211//211 214//214 212//212
f 210//210 213//213 214//214
f 210//210 172//172 213//213
f 172//172 225//225 213//213
f 212//212 214//214 215//215
f 213//213 224//224 214//214
f 214//214 224//224 215//215
f 71//71 212//212 216//216
f 212//212 219//219 216//216
f 216//216 219//219 218//218
f 74//74 216//216 218//218
f 74//74 218//218 217//217
f 218//218 222//222 217//217
f 212//212 215//215 219//219
f 215//215 229//229 219//219
f 218//218 219//219 220//220
f 219//219 229//229 220//220
f 218//218 220//220 222//222
f 217//217 222//222 221//221
f 221//221 222//222 223//223
f 221//221 223//223 288//288
f 222//222 235//235 223//223
f 220//220 235//235 222//222
f 223//223 235//235 309//309
f 213//213 225//225 226//226
f 213//213 226//226 224//224
f 215//215 224//224 227//227
f 226//226 227//227 224//224
f 225//225 230//230 226//226
f 225//225 208//208 230//230
f 226//226 228//228 227//227
f 226//226 230//230 228//228
f 227//227 228//228 237//237
f 215//215 227//227 229//229
f 220//220 229//229 234//234
f 227//227 237//237 229//229
f 229//229 237//237 234//234
f 208//208 231//231 230//230
f 230//230 232//232 228//228
f 230//230 231//231 232//232
f 228//228 233//233 237//237
f 232//232 233//233 228//228
f 231//231 303//303 232//232
f 231//231 287//287 303//303
f 232//232 303//303 304//304
f 232//232 304//304 233//233
f 233//233 304//304 305//305
f 220//220 234//234 235//235
f 234//234 236//236 235//235
f 235//235 236//236 309//309
f 237//237 238//238 234//234
f 233//233 238//238 237//237
f 238//238 236//236 234//234
f 238//238 313//313 236//236
f 233//233 305//305 238//238
f 238//238 305//305 313//313
f 272//272 261//261 260//260
f 272//272 276//276 261//261
f 276//276 262//262 261//261
f 276//276 263//263 262//262
f 276//276 265//265 263//263
f 276//276 266//266 265//265
f 276//276 268//268 266//266
f 276//276 269//269 268//268
f 276//276 270//270 269//269
f 272//272 278//278 277//277
f 272//272 277//277 276//276
f 205//205 275//275 276//276
f 276//276 271//271 270//270
f 276//276 275//275 271//271
f 205//205 276//276 283//283
f 276//276 285//285 283//283
f 276//276 277//277 285//285
f 277//277 281//281 285//285
f 138//138 279//279 278//278
f 138//138 280//280 279//279
f 277//277 278//278 279//279
f 279//279 280//280 282//282
f 277//277 279//279 281//281
f 279//279 282//282 281//281
f 281//281 282//282 315//315
f 283//283 285//285 284//284
f 209//209 283//283 284//284
f 281//281 286//286 285//285
f 284//284 285//285 286//286
f 209//209 284//284 287//287
f 284//284 306//306 287//287
f 284//284 286//286 306//306
f 281//281 315//315 286//286
f 288//288 290//290 289//289
f 223//223 290//290 288//288
f 289//289 291//291 298//298
f 289//289 290//290 291//291
f 223//223 309//309 290//290
f 290//290 309//309 312//312
f 290//290 312//312 291//291
f 291//291 312//312 301//301
f 164//164 292//292 280//280
f 164//164 293//293 292//292
f 280//280 292//292 282//282
f 292//292 293//293 296//296
f 165//165 294//294 293//293
f 293//293 294//294 296//296
f 292//292 295//295 282//282
f 292//292 296//296 295//295
f 282//282 295//295 315//315
f 294//294 297//297 296//296
f 295//295 296//296 318//318
f 296//296 297//297 318//318
f 168//168 298//298 299//299
f 168//168 299//299 300//300
f 291//291 299//299 298//298
f 165//165 300//300 294//294
f 294//294 300//300 302//302
f 299//299 302//302 300//300
f 299//299 301//301 302//302
f 301//301 321//321 302//302
f 291//291 301//301 299//299
f 294//294 302//302 297//297
f 297//297 302//302 321//321
f 287//287 306//306 303//303
f 303//303 307//307 304//304
f 303//303 306//306 307//307
f 304//304 308//308 305//305
f 307//307 308//308 304//304
f 306//306 319//319 307//307
f 286//286 319//319 306//306
f 307//307 319//319 320//320
f 308//308 320//320 322//322
f 307//307 320//320 308//308
f 310//310 312//312 309//309
f 236//236 310//310 309//309
f 301//301 312//312 311//311
f 310//310 311//311 312//312
f 314//314 310//310 313//313
f 305//305 314//314 313//313
f 305//305 308//308 314//314
f 236//236 313//313 310//310
f 308//308 322//322 314//314
f 314//314 311//311 310//310
f 314//314 322//322 311//311
f 286//286 315//315 319//319
f 315//315 316//316 319//319
f 316//316 317//317 320//320
f 295//295 316//316 315//315
f 295//295 318//318 316//316
f 297//297 317//317 318//318
f 316//316 318//318 317//317
f 316//316 320//320 319//319
f 317//317 322//322 320//320
f 301//301 311//311 321//321
f 311//311 322//322 321//321
f 317//317 321//321 322//322
f 297//297 321//321 317//317
f 7//7 83//83 6//6
f 7//7 9//9 82//82
f 8//8 9//9 7//7
f 8//8 7//7 6//6
f 8//8 6//6 18//18
f 13//13 8//8 18//18
f 9//9 88//88 82//82
f 9//9 10//10 88//88
f 12//12 10//10 9//9
f 10//10 89//89 88//88
f 12//12 11//11 10//10
f 10//10 32//32 89//89
f 10//10 11//11 32//32
f 8//8 12//12 9//9
f 13//13 12//12 8//8
f 13//13 14//14 12//12
f 13//13 25//25 14//14
f 14//14 11//11 12//12
f 14//14 37//37 11//11
f 14//14 25//25 15//15
f 14//14 15//15 37//37
f 6//6 16//16 17//17
f 6//6 83//83 16//16
f 18//18 6//6 17//17
f 17//17 16//16 21//21
f 18//18 17//17 20//20
f 20//20 17//17 22//22
f 13//13 18//18 19//19
f 19//19 18//18 20//20
f 19//19 20//20 23//23
f 16//16 101//101 21//21
f 17//17 21//21 22//22
f 20//20 22//22 24//24
f 21//21 101//101 174//174
f 22//22 21//21 175//175
f 21//21 174//174 175//175
f 22//22 175//175 24//24
f 20//20 24//24 23//23
f 23//23 24//24 177//177
f 13//13 19//19 25//25
f 19//19 26//26 25//25
f 19//19 23//23 26//26
f 25//25 27//27 15//15
f 25//25 26//26 27//27
f 26//26 29//29 27//27
f 26//26 23//23 28//28
f 23//23 177//177 28//28
f 26//26 28//28 29//29
f 28//28 182//182 29//29
f 32//32 112//112 89//89
f 11//11 38//38 32//32
f 32//32 33//33 112//112
f 112//112 34//34 113//113
f 32//32 38//38 33//33
f 112//112 33//33 34//34
f 38//38 35//35 33//33
f 11//11 37//37 38//38
f 37//37 40//40 38//38
f 15//15 44//44 37//37
f 37//37 44//44 41//41
f 38//38 39//39 35//35
f 38//38 40//40 39//39
f 37//37 41//41 40//40
f 44//44 42//42 41//41
f 44//44 43//43 42//42
f 15//15 27//27 44//44
f 44//44 45//45 46//46
f 27//27 29//29 45//45
f 27//27 45//45 44//44
f 44//44 46//46 43//43
f 45//45 47//47 46//46
f 45//45 48//48 47//47
f 45//45 29//29 49//49
f 45//45 49//49 50//50
f 29//29 182//182 49//49
f 49//49 51//51 50//50
f 49//49 52//52 51//51
f 45//45 50//50 48//48
f 7//7 85//85 83//83
f 83//83 85//85 84//84
f 7//7 82//82 85//85
f 82//82 87//87 85//85
f 85//85 87//87 86//86
f 85//85 86//86 84//84
f 86//86 98//98 84//84
f 86//86 93//93 98//98
f 82//82 88//88 87//87
f 88//88 90//90 87//87
f 87//87 90//90 92//92
f 88//88 89//89 90//90
f 90//90 91//91 92//92
f 90//90 89//89 111//111
f 90//90 111//111 91//91
f 86//86 87//87 92//92
f 86//86 92//92 93//93
f 92//92 94//94 93//93
f 93//93 94//94 106//106
f 92//92 91//91 94//94
f 94//94 91//91 117//117
f 94//94 95//95 106//106
f 94//94 117//117 95//95
f 16//16 83//83 96//96
f 96//96 84//84 97//97
f 83//83 84//84 96//96
f 84//84 98//98 97//97
f 16//16 96//96 101//101
f 96//96 97//97 102//102
f 97//97 98//98 100//100
f 97//97 100//100 103//103
f 93//93 99//99 98//98
f 98//98 99//99 100//100
f 99//99 104//104 100//100
f 96//96 102//102 101//101
f 97//97 103//103 102//102
f 100//100 105//105 103//103
f 101//101 102//102 239//239
f 102//102 103//103 240//240
f 174//174 101//101 239//239
f 102//102 240//240 239//239
f 240//240 103//103 105//105
f 100//100 104//104 105//105
f 105//105 104//104 243//243
f 93//93 106//106 99//99
f 99//99 106//106 107//107
f 99//99 107//107 104//104
f 106//106 95//95 108//108
f 106//106 108//108 107//107
f 107//107 108//108 110//110
f 107//107 109//109 104//104
f 104//104 109//109 243//243
f 107//107 110//110 109//109
f 109//109 110//110 249//249
f 89//89 112//112 111//111
f 111//111 118//118 91//91
f 112//112 115//115 111//111
f 112//112 113//113 114//114
f 111//111 115//115 118//118
f 112//112 114//114 115//115
f 118//118 115//115 116//116
f 91//91 118//118 117//117
f 118//118 120//120 117//117
f 117//117 127//127 95//95
f 117//117 121//121 127//127
f 118//118 116//116 119//119
f 118//118 119//119 120//120
f 117//117 120//120 121//121
f 127//127 121//121 122//122
f 127//127 122//122 123//123
f 95//95 127//127 108//108
f 127//127 129//129 128//128
f 108//108 128//128 110//110
f 108//108 127//127 128//128
f 127//127 123//123 129//129
f 128//128 129//129 130//130
f 128//128 130//130 131//131
f 128//128 132//132 110//110
f 128//128 133//133 132//132
f 110//110 132//132 249//249
f 132//132 133//133 134//134
f 132//132 134//134 135//135
f 128//128 131//131 133//133
f 175//175 174//174 176//176
f 24//24 175//175 178//178
f 178//178 175//175 176//176
f 174//174 241//241 176//176
f 24//24 178//178 177//177
f 178//178 176//176 180//180
f 177//177 178//178 184//184
f 178//178 180//180 184//184
f 176//176 241//241 179//179
f 176//176 179//179 180//180
f 180//180 179//179 185//185
f 179//179 247//247 185//185
f 177//177 181//181 28//28
f 177//177 184//184 181//181
f 28//28 181//181 182//182
f 181//181 187//187 183//183
f 181//181 183//183 182//182
f 184//184 180//180 186//186
f 181//181 184//184 187//187
f 184//184 186//186 187//187
f 180//180 185//185 186//186
f 185//185 247//247 256//256
f 186//186 185//185 189//189
f 187//187 196//196 183//183
f 187//187 186//186 188//188
f 186//186 189//189 188//188
f 187//187 188//188 196//196
f 185//185 256//256 189//189
f 189//189 256//256 258//258
f 189//189 206//206 188//188
f 189//189 258//258 206//206
f 49//49 182//182 191//191
f 49//49 191//191 52//52
f 191//191 192//192 52//52
f 191//191 193//193 192//192
f 182//182 183//183 191//191
f 191//191 183//183 196//196
f 191//191 194//194 193//193
f 191//191 195//195 194//194
f 191//191 197//197 195//195
f 191//191 196//196 197//197
f 196//196 198//198 197//197
f 196//196 188//188 199//199
f 188//188 206//206 199//199
f 196//196 199//199 198//198
f 206//206 202//202 199//199
f 199//199 200//200 198//198
f 199//199 201//201 200//200
f 199//199 202//202 201//201
f 206//206 258//258 274//274
f 206//206 274//274 202//202
f 274//274 203//203 202//202
f 274//274 275//275 203//203
f 174//174 239//239 241//241
f 239//239 240//240 242//242
f 240//240 105//105 244//244
f 240//240 244//244 242//242
f 239//239 242//242 241//241
f 105//105 243//243 244//244
f 244//244 246//246 242//242
f 244//244 243//243 251//251
f 244//244 251//251 246//246
f 241//241 242//242 245//245
f 179//179 241//241 245//245
f 245//245 242//242 246//246
f 179//179 245//245 247//247
f 245//245 246//246 252//252
f 245//245 252//252 247//247
f 243//243 109//109 248//248
f 243//243 248//248 251//251
f 109//109 249//249 248//248
f 248//248 250//250 254//254
f 248//248 249//249 250//250
f 246//246 251//251 253//253
f 248//248 254//254 251//251
f 251//251 254//254 253//253
f 246//246 253//253 252//252
f 247//247 252//252 256//256
f 252//252 253//253 257//257
f 254//254 250//250 264//264
f 254//254 255//255 253//253
f 257//257 253//253 255//255
f 254//254 264//264 255//255
f 256//256 252//252 257//257
f 256//256 257//257 258//258
f 257//257 255//255 273//273
f 257//257 273//273 258//258
f 132//132 259//259 249//249
f 132//132 135//135 259//259
f 259//259 135//135 260//260
f 259//259 260//260 261//261
f 249//249 259//259 250//250
f 259//259 264//264 250//250
f 259//259 261//261 262//262
f 259//259 262//262 263//263
f 259//259 263//263 265//265
f 259//259 265//265 264//264
f 264//264 265//265 266//266
f 264//264 267//267 255//255
f 273//273 255//255 267//267
f 264//264 266//266 267//267
f 273//273 267//267 270//270
f 267//267 266//266 268//268
f 267//267 268//268 269//269
f 267//267 269//269 270//270
f 258//258 273//273 274//274
f 274//274 273//273 270//270
f 274//274 270//270 271//271
f 274//274 271//271 275//275
